<?xml version="1.0" encoding="utf-8"?>
<!-- Generator: Adobe Illustrator 22.0.1, SVG Export Plug-In . SVG Version: 6.00 Build 0)  -->
<svg version="1.1" id="Layer_1" xmlns="http://www.w3.org/2000/svg" xmlns:xlink="http://www.w3.org/1999/xlink" x="0px" y="0px"
	 viewBox="0 0 35 35" style="enable-background:new 0 0 35 35;" xml:space="preserve">
<style type="text/css">
	.st0{fill:url(#SVGID_1_);}
	.st1{fill:url(#SVGID_2_);}
	.st2{fill:url(#SVGID_3_);}
</style>
<title>Header Icons</title>
<linearGradient id="SVGID_1_" gradientUnits="userSpaceOnUse" x1="16.9196" y1="28.656" x2="16.9196" y2="10.4894">
	<stop  offset="0" style="stop-color:#FB883C"/>
	<stop  offset="1" style="stop-color:#F8CA42"/>
</linearGradient>
<path class="st0" d="M18,28.9h-2.1c-1.2,0-2.2-1-2.2-2.2v-14c0-1.2,1-2.2,2.2-2.2H18c1.2,0,2.2,1,2.2,2.2v14
	C20.2,27.9,19.2,28.9,18,28.9z"/>
<linearGradient id="SVGID_2_" gradientUnits="userSpaceOnUse" x1="24.9821" y1="28.5879" x2="24.9821" y2="5.4704">
	<stop  offset="0" style="stop-color:#FB883C"/>
	<stop  offset="1" style="stop-color:#F8CA42"/>
</linearGradient>
<path class="st1" d="M26.1,28.9h-2.1c-1.2,0-2.2-1-2.2-2.2v-19c0-1.2,1-2.2,2.2-2.2h2.1c1.2,0,2.2,1,2.2,2.2v19
	C28.2,27.9,27.2,28.9,26.1,28.9z"/>
<linearGradient id="SVGID_3_" gradientUnits="userSpaceOnUse" x1="8.8571" y1="28.7241" x2="8.8571" y2="15.5084">
	<stop  offset="0" style="stop-color:#FB883C"/>
	<stop  offset="1" style="stop-color:#F8CA42"/>
</linearGradient>
<path class="st2" d="M9.9,28.9H7.8c-1.2,0-2.2-1-2.2-2.2v-9c0-1.2,1-2.2,2.2-2.2h2.1c1.2,0,2.2,1,2.2,2.2v9
	C12.1,27.9,11.1,28.9,9.9,28.9z"/>
</svg>
