<?xml version="1.0" encoding="utf-8"?>
<!-- Generator: Adobe Illustrator 22.0.1, SVG Export Plug-In . SVG Version: 6.00 Build 0)  -->
<svg version="1.1" id="Layer_1" xmlns="http://www.w3.org/2000/svg" xmlns:xlink="http://www.w3.org/1999/xlink" x="0px" y="0px"
	 viewBox="0 0 35 35" style="enable-background:new 0 0 35 35;" xml:space="preserve">
<style type="text/css">
	.st0{fill:url(#SVGID_1_);}
</style>
<title>Header Icons</title>
<linearGradient id="SVGID_1_" gradientUnits="userSpaceOnUse" x1="17.5" y1="31.6667" x2="17.5" y2="2.8333">
	<stop  offset="0" style="stop-color:#6868EB"/>
	<stop  offset="1" style="stop-color:#F168EB"/>
</linearGradient>
<path class="st0" d="M31.8,14.9l-3.6-2.4c-0.2-0.1-0.5-0.1-0.7,0l-1.4,0.9l-4.6-3.5c0,0,0,0,0,0V5.6c0-0.2-0.1-0.4-0.3-0.5l-3.6-2.4
	c-0.2-0.1-0.5-0.1-0.7,0l-3.6,2.4c-0.2,0.1-0.3,0.3-0.3,0.5v4.2c0,0,0,0,0,0l-4.5,3.4l-1.2-0.8c-0.2-0.1-0.5-0.1-0.7,0l-3.6,2.4
	C3,15,2.9,15.2,2.9,15.4v4.2c0,0.2,0.1,0.4,0.3,0.5l3.6,2.4c0.2,0.1,0.5,0.1,0.7,0l3-2l4.3,3.3l-1.3,0.8c-0.2,0.1-0.3,0.3-0.3,0.5
	v4.2c0,0.2,0.1,0.4,0.3,0.5l3.6,2.4c0.2,0.1,0.5,0.1,0.7,0l3.6-2.4c0.2-0.1,0.3-0.3,0.3-0.5v-4.2c0-0.2-0.1-0.4-0.3-0.5L20,23.8
	l4.4-3.4l3.2,2.1c0.2,0.1,0.5,0.1,0.7,0l3.6-2.4c0.2-0.1,0.3-0.3,0.3-0.5v-4.2C32.1,15.2,32,15,31.8,14.9z M14.5,6
	C14.5,6,14.5,6.1,14.5,6c0-0.1,0.1-0.2,0.2-0.3l2.5-1.6c0.1-0.1,0.3-0.1,0.5,0l2.5,1.6c0.1,0.1,0.2,0.2,0.2,0.3c0,0,0,0,0,0v0.1
	c0,0,0,0,0,0c0,0.1-0.1,0.2-0.2,0.3L17.6,8c-0.1,0.1-0.3,0.1-0.5,0l-2.5-1.6C14.6,6.3,14.5,6.2,14.5,6C14.5,6.1,14.5,6.1,14.5,6
	L14.5,6z M10,15.8C10,15.8,10,15.8,10,15.8c0,0.1-0.1,0.2-0.2,0.3l-2.5,1.6c-0.1,0.1-0.3,0.1-0.5,0l-2.5-1.6
	c-0.1-0.1-0.2-0.2-0.2-0.3c0,0,0,0,0,0v-0.1c0,0,0,0,0,0c0-0.1,0.1-0.2,0.2-0.3l2.5-1.6c0.1-0.1,0.3-0.1,0.5,0l2.5,1.6
	C9.9,15.6,10,15.7,10,15.8C10,15.8,10,15.8,10,15.8L10,15.8z M20.2,25.3c0.1,0.1,0.2,0.2,0.2,0.3c0,0,0,0,0,0v0.1c0,0,0,0,0,0
	c0,0.1-0.1,0.2-0.2,0.3l-2.5,1.6c-0.1,0.1-0.3,0.1-0.5,0L14.7,26c-0.1-0.1-0.2-0.2-0.2-0.3c0,0,0,0,0,0v-0.1c0,0,0,0,0,0
	c0-0.1,0.1-0.2,0.2-0.3l2.5-1.6c0.1-0.1,0.3-0.1,0.5,0L20.2,25.3z M24,14.9c-0.2,0.1-0.3,0.3-0.3,0.5v4.2l-4.6,3.6l-1.4-0.9
	c-0.2-0.1-0.5-0.1-0.7,0l-1.4,0.9l-4.4-3.4c0-0.1,0-0.1,0-0.2v-4.2c0-0.2-0.1-0.4-0.3-0.5l-1.4-0.9l4.3-3.3l3.2,2.1
	c0.2,0.1,0.5,0.1,0.7,0l3.1-2.1l4.4,3.4L24,14.9z M30.8,15.8C30.8,15.8,30.8,15.8,30.8,15.8c0,0.1-0.1,0.2-0.2,0.3l-2.5,1.6
	c-0.1,0.1-0.3,0.1-0.5,0l-2.5-1.6C25.1,16,25,15.9,25,15.8c0,0,0,0,0,0v-0.1c0,0,0,0,0,0c0-0.1,0.1-0.2,0.2-0.3l2.5-1.6
	c0.1-0.1,0.3-0.1,0.5,0l2.5,1.6C30.7,15.6,30.8,15.7,30.8,15.8C30.8,15.8,30.8,15.8,30.8,15.8L30.8,15.8z"/>
</svg>
