<?xml version="1.0" encoding="utf-8"?>
<!-- Generator: Adobe Illustrator 22.0.1, SVG Export Plug-In . SVG Version: 6.00 Build 0)  -->
<svg version="1.1" id="Layer_1" xmlns="http://www.w3.org/2000/svg" xmlns:xlink="http://www.w3.org/1999/xlink" x="0px" y="0px"
	 viewBox="0 0 35 35" style="enable-background:new 0 0 35 35;" xml:space="preserve">
<style type="text/css">
	.st0{fill:url(#SVGID_1_);}
</style>
<title>Header Icons</title>
<linearGradient id="SVGID_1_" gradientUnits="userSpaceOnUse" x1="3.75" y1="17.9739" x2="31.25" y2="17.9739">
	<stop  offset="0" style="stop-color:#FCB3A4"/>
	<stop  offset="1" style="stop-color:#DA5899"/>
</linearGradient>
<path class="st0" d="M30,19.8h-2.7v-3.7H30c0.7,0,1.3-0.6,1.3-1.4s-0.6-1.4-1.3-1.4h-2.7v-3.3c0-1-0.8-1.9-1.9-1.9h-3.3V5.5
	c0-0.7-0.6-1.3-1.4-1.3c-0.7,0-1.4,0.6-1.4,1.3v2.8h-3.7V5.5c0-0.7-0.6-1.3-1.4-1.3S13,4.8,13,5.5v2.8H9.7c-1,0-1.9,0.8-1.9,1.9v3.3
	H5c-0.7,0-1.3,0.6-1.3,1.4s0.6,1.4,1.3,1.4h2.9v3.7H5c-0.7,0-1.3,0.6-1.3,1.4c0,0.7,0.6,1.4,1.3,1.4h2.9v3.3c0,1,0.8,1.9,1.9,1.9H13
	v2.8c0,0.7,0.6,1.3,1.4,1.3s1.4-0.6,1.4-1.3v-2.8h3.7v2.8c0,0.7,0.6,1.3,1.4,1.3c0.7,0,1.4-0.6,1.4-1.3v-2.8h3.3
	c1,0,1.9-0.8,1.9-1.9v-3.3H30c0.7,0,1.3-0.6,1.3-1.4C31.2,20.4,30.7,19.8,30,19.8z M21.8,20.2c0,1.1-0.9,2-2,2h-4.4
	c-1.1,0-2-0.9-2-2v-4.4c0-1.1,0.9-2,2-2h4.4c1.1,0,2,0.9,2,2V20.2z"/>
</svg>
