<?xml version="1.0" encoding="utf-8"?>
<!-- Generator: Adobe Illustrator 22.0.1, SVG Export Plug-In . SVG Version: 6.00 Build 0)  -->
<svg version="1.1" id="Layer_1" xmlns="http://www.w3.org/2000/svg" xmlns:xlink="http://www.w3.org/1999/xlink" x="0px" y="0px"
	 viewBox="0 0 35 35" style="enable-background:new 0 0 35 35;" xml:space="preserve">
<style type="text/css">
	.st0{fill:url(#SVGID_1_);}
</style>
<title>Header Icons</title>
<linearGradient id="SVGID_1_" gradientUnits="userSpaceOnUse" x1="17.495" y1="29.75" x2="17.495" y2="4.6827">
	<stop  offset="0" style="stop-color:#0099E1"/>
	<stop  offset="1" style="stop-color:#0081BE"/>
</linearGradient>
<path class="st0" d="M22.8,5.3H12.2c-1.3,0-2.3,1-2.3,2.3v19.8c0,1.3,1,2.3,2.3,2.3h10.7c1.3,0,2.3-1,2.3-2.3V7.6
	C25.1,6.3,24.1,5.3,22.8,5.3z M14.8,6.6h5v1h-5V6.6z M17.5,28.2c-0.8,0-1.5-0.7-1.6-1.5c0-0.8,0.7-1.5,1.5-1.6
	c0.8,0,1.5,0.7,1.6,1.5c0,0,0,0,0,0C19,27.5,18.3,28.2,17.5,28.2L17.5,28.2z M22.3,23.5h-9.7V9h9.7V23.5z"/>
<image style="overflow:visible;" width="864" height="504" xlink:href="7154B7397081811A.png"  transform="matrix(1 0 0 1 -432 103)">
</image>
</svg>
