<svg id="Layer_1" data-name="Layer 1" xmlns="http://www.w3.org/2000/svg" xmlns:xlink="http://www.w3.org/1999/xlink" viewBox="0 0 35 35"><defs><style>.cls-1{fill:url(#linear-gradient);}.cls-2{fill:url(#linear-gradient-2);}.cls-3{fill:url(#linear-gradient-3);}.cls-4{fill:url(#linear-gradient-4);}.cls-5{fill:url(#linear-gradient-5);}.cls-6{fill:url(#linear-gradient-6);}</style><linearGradient id="linear-gradient" x1="13.16" y1="6.17" x2="13.16" y2="24.83" gradientUnits="userSpaceOnUse"><stop offset="0" stop-color="#5679b7"/><stop offset="1" stop-color="#6a98db"/></linearGradient><linearGradient id="linear-gradient-2" x1="19.11" y1="6.17" x2="19.11" y2="24.83" xlink:href="#linear-gradient"/><linearGradient id="linear-gradient-3" x1="11.49" y1="6.17" x2="11.49" y2="24.83" xlink:href="#linear-gradient"/><linearGradient id="linear-gradient-4" x1="23.6" y1="6.17" x2="23.6" y2="24.83" xlink:href="#linear-gradient"/><linearGradient id="linear-gradient-5" x1="12.63" y1="5.36" x2="12.63" y2="12.28" xlink:href="#linear-gradient"/><linearGradient id="linear-gradient-6" x1="21" y1="6.16" x2="21" y2="24.83" xlink:href="#linear-gradient"/></defs><title>augmented-reality-icon</title><path class="cls-1" d="M13.58,6.69l-.26.15L13,7.05l-.36.28a9.2,9.2,0,0,1,1-.7Z"/><path class="cls-2" d="M18.86,16.93a2.31,2.31,0,0,1-1.07,1.91,18,18,0,0,1-9.34,2.47.33.33,0,0,0,0,.14A.79.79,0,0,0,8.8,22c.09.08.15.13.17.2a.47.47,0,0,1-.1.11.8.8,0,0,0-.28.57.86.86,0,0,0,.29.63,1.42,1.42,0,0,1,.2.28.88.88,0,0,1-.05.69c0,.05,0,.1,0,.16-.1.34-.35,1.49.53,2a3.72,3.72,0,0,0,1.92.4h.87a4,4,0,0,1,1.22.15c1.18.37,1.49,1.62,1.54,2.95H24.6l0-.13v0c0-.08,0-.15,0-.22V29.7l0-.16v-.07l0-.15v-.06l0-.2v0c0-.05,0-.11,0-.16v-.07a.57.57,0,0,1,0-.13v-.07s0-.11,0-.16v-.66c0-.05,0-.11,0-.17v0s0-.09,0-.13v-.07a.41.41,0,0,1,0-.11v-.06s0-.09,0-.13v0l0-.16V26.8l0-.11v-.07l0-.1v-.06h0a12,12,0,0,1,2.27-3.89,26.58,26.58,0,0,0,2-2.87,8.77,8.77,0,0,0,1-3H18.86Z"/><path class="cls-3" d="M17.84,16.93v-.22h-1a.5.5,0,0,1-.5-.51V12.36a.5.5,0,0,1,.5-.5h1v-.4a1.29,1.29,0,0,0-.61-1.07A17.33,17.33,0,0,0,8,8.09c-.44,0-.87,0-1.32,0A1.49,1.49,0,0,0,5.14,9.49V18.9a1.5,1.5,0,0,0,1.52,1.36h0c.45,0,.89,0,1.32,0A17.33,17.33,0,0,0,17.23,18,1.3,1.3,0,0,0,17.84,16.93Z"/><rect class="cls-4" x="17.34" y="12.87" width="12.51" height="2.82"/><path class="cls-5" d="M12.61,7.35l0,0Z"/><path class="cls-6" d="M29.54,11.86C28.7,9.06,26.45,6,23.45,5.24a11.48,11.48,0,0,0-1.69-.32c-.42,0-.85-.06-1.28-.06h-.23a13,13,0,0,0-6.56,1.76,9.2,9.2,0,0,0-1,.7l0,0-.08.06-.07.06a29.78,29.78,0,0,1,5.33,2.07,2.34,2.34,0,0,1,1.07,1.92v.4Z"/></svg>